# Created using SwiftConverter

# Vertex Array 
v 0.000 20.000 -20.000
v 0.000 0.000 -20.000
v 0.000 20.000 0.000
v 0.000 0.000 0.000
v 5.040 3.681 0.000
v 6.653 3.681 0.000
v 12.535 3.681 0.000
v 9.553 8.576 0.000
v 14.317 3.681 0.000
v 20.000 0.000 0.000
v 5.258 15.986 0.000
v 8.586 10.067 0.000
v 6.905 15.992 0.000
v 9.535 11.336 0.000
v 12.474 15.992 0.000
v 10.307 10.022 0.000
v 14.101 15.957 0.000
v 20.000 20.000 0.000
v 6.322 20.000 -4.427
v 6.322 20.000 -4.007
v 14.112 20.000 -4.007
v 14.112 20.000 -5.520
v 6.406 20.000 -14.805
v 6.406 20.000 -16.318
v 20.000 20.000 -20.000
v 13.927 20.000 -16.318
v 13.927 20.000 -15.898
v 8.616 20.000 -5.520
v 11.616 20.000 -14.805
v 20.000 0.000 -20.000
v 20.000 9.230 -10.451
v 20.000 3.717 -10.511
v 20.000 3.699 -8.830
v 20.000 9.212 -8.770
v 20.000 16.071 -14.327
v 20.000 16.052 -12.596
v 20.000 15.985 -6.462
v 20.000 10.641 -9.587
v 20.000 15.967 -4.731
v 14.101 15.955 -1.902
v 10.307 10.020 -1.897
v 14.317 3.679 -1.891
v 12.535 3.679 -1.891
v 9.553 8.575 -1.895
v 6.653 3.679 -1.891
v 5.040 3.679 -1.891
v 8.586 10.066 -1.897
v 5.258 15.984 -1.902
v 6.905 15.990 -1.902
v 9.535 11.335 -1.898
v 12.474 15.990 -1.902
v 13.927 18.000 -15.898
v 8.616 18.000 -5.520
v 13.927 18.000 -16.318
v 6.406 18.000 -16.318
v 6.406 18.000 -14.805
v 11.616 18.000 -14.805
v 6.322 18.000 -4.427
v 6.322 18.000 -4.007
v 14.112 18.000 -4.007
v 14.112 18.000 -5.520
v 18.062 9.233 -10.450
v 18.071 16.074 -14.326
v 18.072 16.055 -12.595
v 18.065 10.644 -9.586
v 18.074 15.988 -6.461
v 18.075 15.970 -4.730
v 18.063 9.215 -8.769
v 18.055 3.702 -8.829
v 18.054 3.720 -10.510

# Normal Array
vn -1.000 0.000 0.000
vn -1.000 0.000 0.000
vn 0.000 -0.000 1.000
vn 0.000 -0.000 1.000
vn 0.000 -0.000 1.000
vn 0.000 -0.000 1.000
vn 0.000 -0.000 1.000
vn 0.000 -0.000 1.000
vn 0.000 -0.000 1.000
vn 0.000 -0.000 1.000
vn 0.000 -0.000 1.000
vn 0.000 -0.000 1.000
vn 0.000 -0.000 1.000
vn -0.000 -0.000 1.000
vn -0.000 -0.000 1.000
vn -0.000 -0.000 1.000
vn -0.000 -0.000 1.000
vn 0.000 -0.000 1.000
vn 0.000 1.000 -0.000
vn 0.000 1.000 0.000
vn 0.000 1.000 0.000
vn 0.000 1.000 0.000
vn 0.000 1.000 0.000
vn 0.000 1.000 0.000
vn 0.000 1.000 -0.000
vn 0.000 1.000 0.000
vn 0.000 1.000 -0.000
vn 0.000 1.000 0.000
vn 0.000 1.000 0.000
vn 0.000 1.000 0.000
vn 0.000 1.000 -0.000
vn 0.000 1.000 0.000
vn 0.000 -0.000 -1.000
vn -0.000 0.000 -1.000
vn 0.000 -1.000 -0.000
vn -0.000 -1.000 -0.000
vn 1.000 0.000 0.000
vn 1.000 0.000 0.000
vn 1.000 0.000 0.000
vn 1.000 0.000 0.000
vn 1.000 0.000 0.000
vn 1.000 0.000 0.000
vn 1.000 0.000 0.000
vn 1.000 0.000 0.000
vn 1.000 0.000 0.000
vn 1.000 0.000 0.000
vn 1.000 0.000 0.000
vn 1.000 0.000 0.000
vn 1.000 0.000 0.000
vn -0.843 0.539 -0.000
vn -0.843 0.539 -0.000
vn -0.845 -0.534 0.000
vn -0.845 -0.534 0.000
vn -0.000 1.000 -0.001
vn -0.000 1.000 -0.001
vn 0.854 0.520 -0.000
vn 0.854 0.520 -0.000
vn -0.860 0.510 -0.000
vn -0.860 0.510 -0.000
vn 0.000 1.000 -0.001
vn 0.000 1.000 -0.001
vn 0.874 -0.485 0.000
vn 0.874 -0.485 0.000
vn 0.872 0.490 -0.000
vn 0.872 0.490 -0.000
vn 0.004 -1.000 0.001
vn 0.004 -1.000 0.001
vn -0.871 -0.492 0.000
vn -0.871 -0.492 0.000
vn 0.846 -0.534 0.000
vn 0.846 -0.534 0.000
vn -0.022 -1.000 0.001
vn -0.022 -1.000 0.001
vn -0.890 -0.000 -0.456
vn -0.890 0.000 -0.456
vn -1.000 0.000 -0.000
vn -1.000 -0.000 0.000
vn -0.000 0.000 1.000
vn 0.000 0.000 1.000
vn 1.000 0.000 0.000
vn 1.000 0.000 -0.000
vn 0.000 -0.000 -1.000
vn 0.000 0.000 -1.000
vn 0.891 -0.000 0.454
vn 0.891 0.000 0.454
vn 1.000 0.000 -0.000
vn 1.000 0.000 0.000
vn 0.000 0.000 -1.000
vn 0.000 0.000 -1.000
vn -1.000 -0.000 0.000
vn -1.000 0.000 -0.000
vn 0.000 -0.000 1.000
vn 0.000 -0.000 1.000
vn 0.001 0.493 0.870
vn 0.001 0.493 0.870
vn -0.002 -1.000 -0.011
vn -0.002 -1.000 -0.011
vn -0.001 -0.486 -0.874
vn -0.001 -0.486 -0.874
vn -0.000 -0.505 0.863
vn -0.000 -0.505 0.863
vn -0.002 -1.000 -0.011
vn -0.002 -1.000 -0.011
vn 0.000 0.513 -0.858
vn 0.000 0.513 -0.858
vn -0.000 0.011 -1.000
vn -0.000 0.011 -1.000
vn 0.002 1.000 0.011
vn 0.002 1.000 0.011
vn 0.000 -0.011 1.000
vn 0.000 -0.011 1.000
vn -0.000 0.001 1.000
vn 0.000 0.001 1.000
vn 0.000 0.001 1.000
vn -0.000 0.001 1.000
vn 0.000 0.001 1.000
vn 0.000 0.001 1.000
vn -0.000 0.001 1.000
vn 0.000 0.001 1.000
vn 0.000 0.001 1.000
vn 0.000 0.001 1.000
vn 0.000 1.000 0.000
vn 0.000 1.000 0.000
vn 0.000 1.000 -0.000
vn 0.000 1.000 0.000
vn 0.000 1.000 0.000
vn 0.000 1.000 -0.000
vn 0.000 1.000 0.000
vn -0.000 1.000 -0.000
vn 1.000 -0.002 -0.000
vn 1.000 -0.002 -0.000
vn 1.000 -0.002 -0.000
vn 1.000 -0.002 -0.000
vn 1.000 -0.002 -0.000
vn 1.000 -0.002 -0.000
vn 1.000 -0.002 -0.000

# Facets
f 1//1 2//1 3//1
f 2//2 4//2 3//2
f 5//3 4//3 6//3
f 6//4 4//4 7//4
f 6//5 7//5 8//5
f 9//6 7//6 10//6
f 7//7 4//7 10//7
f 3//8 4//8 11//8
f 5//9 12//9 11//9
f 4//10 5//10 11//10
f 3//11 11//11 13//11
f 13//12 14//12 15//12
f 3//13 13//13 15//13
f 16//14 9//14 17//14
f 9//15 10//15 17//15
f 15//16 17//16 18//16
f 17//17 10//17 18//17
f 3//18 15//18 18//18
f 19//19 3//19 20//19
f 18//20 21//20 20//20
f 18//21 22//21 21//21
f 18//22 20//22 3//22
f 23//23 1//23 3//23
f 23//24 3//24 19//24
f 24//25 1//25 23//25
f 25//26 26//26 27//26
f 25//27 22//27 18//27
f 25//28 27//28 22//28
f 25//29 1//29 24//29
f 25//30 24//30 26//30
f 27//31 28//31 22//31
f 19//32 29//32 23//32
f 25//33 30//33 2//33
f 25//34 2//34 1//34
f 4//35 2//35 30//35
f 10//36 4//36 30//36
f 31//37 32//37 30//37
f 10//38 32//38 33//38
f 10//39 30//39 32//39
f 34//40 10//40 33//40
f 35//41 30//41 25//41
f 35//42 31//42 30//42
f 36//43 35//43 25//43
f 37//44 38//44 36//44
f 39//45 10//45 34//45
f 18//46 39//46 37//46
f 18//47 37//47 36//47
f 18//48 36//48 25//48
f 18//49 10//49 39//49
f 17//50 40//50 16//50
f 16//51 40//51 41//51
f 16//52 41//52 9//52
f 9//53 41//53 42//53
f 7//54 9//54 42//54
f 7//55 42//55 43//55
f 8//56 7//56 44//56
f 7//57 43//57 44//57
f 8//58 44//58 6//58
f 6//59 44//59 45//59
f 5//60 6//60 46//60
f 6//61 45//61 46//61
f 12//62 5//62 47//62
f 5//63 46//63 47//63
f 11//64 12//64 48//64
f 12//65 47//65 48//65
f 13//66 11//66 49//66
f 11//67 48//67 49//67
f 13//68 49//68 14//68
f 14//69 49//69 50//69
f 15//70 14//70 51//70
f 14//71 50//71 51//71
f 17//72 15//72 51//72
f 17//73 51//73 40//73
f 27//74 52//74 28//74
f 28//75 52//75 53//75
f 27//76 26//76 54//76
f 27//77 54//77 52//77
f 24//78 55//78 26//78
f 26//79 55//79 54//79
f 23//80 56//80 55//80
f 24//81 23//81 55//81
f 29//82 57//82 56//82
f 23//83 29//83 56//83
f 19//84 58//84 29//84
f 29//85 58//85 57//85
f 19//86 20//86 59//86
f 19//87 59//87 58//87
f 21//88 60//88 59//88
f 20//89 21//89 59//89
f 22//90 61//90 60//90
f 21//91 22//91 60//91
f 28//92 53//92 22//92
f 22//93 53//93 61//93
f 31//94 35//94 62//94
f 35//95 63//95 62//95
f 35//96 36//96 63//96
f 36//97 64//97 63//97
f 38//98 65//98 36//98
f 36//99 65//99 64//99
f 38//100 37//100 65//100
f 37//101 66//101 65//101
f 37//102 39//102 66//102
f 39//103 67//103 66//103
f 34//104 68//104 39//104
f 39//105 68//105 67//105
f 33//106 69//106 34//106
f 34//107 69//107 68//107
f 33//108 32//108 70//108
f 33//109 70//109 69//109
f 32//110 31//110 70//110
f 31//111 62//111 70//111
f 43//112 42//112 41//112
f 44//113 43//113 41//113
f 45//114 44//114 47//114
f 46//115 45//115 47//115
f 44//116 41//116 47//116
f 47//117 41//117 50//117
f 41//118 40//118 51//118
f 50//119 41//119 51//119
f 47//120 50//120 49//120
f 47//121 49//121 48//121
f 53//122 58//122 59//122
f 60//123 53//123 59//123
f 61//124 53//124 60//124
f 57//125 55//125 56//125
f 54//126 55//126 57//126
f 54//127 57//127 52//127
f 57//128 58//128 53//128
f 57//129 53//129 52//129
f 62//130 69//130 70//130
f 62//131 68//131 69//131
f 65//132 68//132 62//132
f 66//133 67//133 68//133
f 66//134 68//134 65//134
f 64//135 65//135 62//135
f 63//136 64//136 62//136

# Thank you for using SwiftConverter

